<svg xmlns="http://www.w3.org/2000/svg" width="103" height="50" fill="none" xmlns:v="https://vecta.io/nano"><path d="M13 41V9a4 4 0 1 0-8 0v32a4 4 0 1 0 8 0z" fill="#1591ea"/><path d="M23.667 41V9a4 4 0 0 0-8 0v32a4 4 0 1 0 8 0z" fill="#ff2c2c"/><path d="M34.333 41V9a4 4 0 0 0-8 0v32a4 4 0 1 0 8 0z" fill="#9d00ff"/><path d="M45 41V9a4 4 0 1 0-8 0v32a4 4 0 1 0 8 0z" fill="#ff8da1"/><path d="M53.641 16.836h2.461v12a2.12 2.12 0 0 0 .645 1.559 2.11 2.11 0 0 0 1.547.645h8.262V33.5h-8.262c-.852 0-1.633-.207-2.344-.621a4.85 4.85 0 0 1-1.687-1.687c-.414-.711-.621-1.496-.621-2.356v-12zm14.203 8.906c0-.805.195-1.539.586-2.203a4.48 4.48 0 0 1 1.594-1.582 4.2 4.2 0 0 1 2.203-.598h2.648a4.2 4.2 0 0 1 2.203.598 4.39 4.39 0 0 1 1.582 1.582 4.2 4.2 0 0 1 .598 2.203v3.375a4.2 4.2 0 0 1-.598 2.203 4.48 4.48 0 0 1-1.582 1.594c-.664.391-1.398.586-2.203.586h-2.648c-.805 0-1.539-.195-2.203-.586a4.58 4.58 0 0 1-1.594-1.594c-.391-.664-.586-1.398-.586-2.203v-3.375zm2.473 3.352a1.89 1.89 0 0 0 .563 1.371c.375.375.824.563 1.348.563h2.648c.531 0 .981-.187 1.348-.562a1.89 1.89 0 0 0 .563-1.371v-3.328a1.85 1.85 0 0 0-.562-1.359c-.367-.383-.817-.574-1.348-.574h-2.648a1.82 1.82 0 0 0-1.348.574 1.85 1.85 0 0 0-.562 1.359v3.328zm11.637-4.336c0-.625.156-1.195.469-1.711a3.6 3.6 0 0 1 1.266-1.23 3.47 3.47 0 0 1 1.758-.457h2.707v2.461h-2.707a1.01 1.01 0 0 0-.727.293.92.92 0 0 0-.293.691V33.5h-2.473v-8.742zm8.086.961c0-.805.195-1.535.586-2.192.398-.656.93-1.18 1.594-1.57a4.2 4.2 0 0 1 2.203-.598h6.773V33.5h-2.472v-9.668h-4.301c-.523 0-.973.188-1.348.563-.375.367-.562.816-.562 1.348v3.352a1.89 1.89 0 0 0 .563 1.371c.375.375.824.563 1.348.563h2.895V33.5h-2.895c-.805 0-1.539-.195-2.203-.586a4.58 4.58 0 0 1-1.594-1.594c-.391-.664-.586-1.398-.586-2.203v-3.398z" fill="#0c8ce9"/></svg>