<svg>
<symbol  xmlns="http://www.w3.org/2000/svg" viewBox="0 0 56 56" id="star2" fill="none">
<path fill="currentColor" d="M21.871 15.566c.281 0 .422-.164.469-.421c.797-3.75.75-3.891 4.664-4.688c.281-.047.445-.21.445-.469c0-.281-.164-.445-.445-.492c-3.914-.797-3.867-.937-4.664-4.664c-.047-.258-.188-.445-.469-.445s-.422.187-.492.445c-.774 3.727-.727 3.867-4.664 4.664c-.258.047-.445.211-.445.492c0 .258.187.422.445.469c3.937.797 3.89.938 4.664 4.688c.07.257.21.421.492.421m19.36 8.274c.328 0 .515-.211.562-.516c.82-4.453.844-4.734 5.554-5.555c.305-.046.54-.257.54-.585c0-.329-.235-.516-.54-.586c-4.71-.797-4.734-1.078-5.554-5.532c-.047-.304-.234-.539-.562-.539s-.54.235-.586.54c-.797 4.453-.82 4.734-5.532 5.53c-.328.071-.539.258-.539.587s.211.539.54.585c4.71.82 4.734 1.102 5.53 5.555c.047.305.258.516.587.516M9.027 30.566c.329 0 .516-.234.563-.539c.82-4.453.844-4.734 5.555-5.53c.304-.071.539-.259.539-.587s-.235-.539-.54-.586c-4.71-.82-4.734-1.101-5.554-5.555c-.047-.304-.235-.515-.563-.515s-.539.21-.585.515c-.82 4.454-.82 4.735-5.532 5.555c-.328.047-.539.258-.539.586s.211.516.54.586c4.71.797 4.71 1.078 5.53 5.531c.047.305.258.54.586.54m40.032 20.04c.984 1.007 2.671 1.007 3.609 0c.938-1.055.96-2.626 0-3.61l-22.289-22.36c-.984-.984-2.672-.984-3.61 0c-.96 1.055-.96 2.65 0 3.634Zm-28.899.374c.422 0 .727-.304.774-.75c.773-6.257 1.078-6.421 7.43-7.453c.515-.093.82-.328.82-.797c0-.445-.305-.726-.727-.796c-6.398-1.22-6.75-1.196-7.523-7.453c-.047-.446-.352-.75-.774-.75c-.445 0-.75.304-.797.726c-.82 6.352-1.054 6.563-7.523 7.477c-.422.047-.727.351-.727.797c0 .445.305.703.727.796c6.469 1.242 6.68 1.242 7.523 7.5a.774.774 0 0 0 .797.703m29.743-1.992L35.442 34.504l1.148-1.125l14.46 14.484c.423.399.516.867.141 1.29c-.422.35-.867.28-1.288-.165">
</path>
</symbol>
<symbol xmlns="http://www.w3.org/2000/svg" viewBox="0 0 24 24" id="moon2"><g fill="none"><path stroke="currentColor" d="M19.9 2.307a.483.483 0 0 0-.9 0l-.43 1.095a.48.48 0 0 1-.272.274l-1.091.432a.486.486 0 0 0 0 .903l1.091.432a.48.48 0 0 1 .272.273L19 6.81c.162.41.74.41.9 0l.43-1.095a.48.48 0 0 1 .273-.273l1.091-.432a.486.486 0 0 0 0-.903l-1.091-.432a.48.48 0 0 1-.273-.274zM16.033 8.13a.483.483 0 0 0-.9 0l-.157.399a.48.48 0 0 1-.272.273l-.398.158a.486.486 0 0 0 0 .903l.398.157c.125.05.223.148.272.274l.157.399c.161.41.739.41.9 0l.157-.4a.48.48 0 0 1 .272-.273l.398-.157a.486.486 0 0 0 0-.903l-.398-.158a.48.48 0 0 1-.272-.273z"></path><path fill="currentColor" d="m21.067 11.857l-.642-.388zm-8.924-8.924l-.388-.642zM21.25 12A9.25 9.25 0 0 1 12 21.25v1.5c5.937 0 10.75-4.813 10.75-10.75zM12 21.25A9.25 9.25 0 0 1 2.75 12h-1.5c0 5.937 4.813 10.75 10.75 10.75zM2.75 12A9.25 9.25 0 0 1 12 2.75v-1.5C6.063 1.25 1.25 6.063 1.25 12zm12.75 2.25A5.75 5.75 0 0 1 9.75 8.5h-1.5a7.25 7.25 0 0 0 7.25 7.25zm4.925-2.781A5.75 5.75 0 0 1 15.5 14.25v1.5a7.25 7.25 0 0 0 6.21-3.505zM9.75 8.5a5.75 5.75 0 0 1 2.781-4.925l-.776-1.284A7.25 7.25 0 0 0 8.25 8.5zM12 2.75a.38.38 0 0 1-.268-.118a.3.3 0 0 1-.082-.155c-.004-.031-.002-.121.105-.186l.776 1.284c.503-.304.665-.861.606-1.299c-.062-.455-.42-1.026-1.137-1.026zm9.71 9.495c-.066.107-.156.109-.187.105a.3.3 0 0 1-.155-.082a.38.38 0 0 1-.118-.268h1.5c0-.717-.571-1.075-1.026-1.137c-.438-.059-.995.103-1.299.606z"></path></g></symbol>
<symbol xmlns="http://www.w3.org/2000/svg" viewBox="0 0 24 24" id="downArrow">
    <path fill="currentColor" d="M12 14.975q-.2 0-.388-.075t-.312-.2l-4.6-4.6q-.275-.275-.275-.7t.275-.7q.275-.275.7-.275t.7.275l3.9 3.9l3.9-3.9q.275-.275.7-.275t.7.275q.275.275.275.7t-.275.7l-4.6 4.6q-.15.15-.325.213t-.375.062Z"></path>
  </symbol>
 <symbol xmlns="http://www.w3.org/2000/svg" viewBox="0 0 256 256" id="tel">
    <path fill="currentColor" d="M235.57 27.7a7 7 0 0 0-7.13-1.22L25.78 105.79a12.23 12.23 0 0 0 2.1 23.39L82 139.81V200a14 14 0 0 0 24.08 9.71l26.64-27.63l41.58 36.45a13.9 13.9 0 0 0 9.2 3.49a14.33 14.33 0 0 0 4.36-.69a13.86 13.86 0 0 0 9.34-10.17l40.62-176.59a7 7 0 0 0-2.25-6.87ZM30.05 117.37a.46.46 0 0 1 0-.32a.51.51 0 0 1 .15-.08l159.71-62.52l-103.3 74l-56.41-11.04Zm67.39 84A2 2 0 0 1 94 200v-51.89l29.69 26Zm88.07 7.08a1.93 1.93 0 0 1-1.34 1.44a2 2 0 0 1-2-.4l-84.53-74.15L223 45.5Z"></path>
  </symbol>
  <symbol xmlns="http://www.w3.org/2000/svg"  viewBox="0 0 24 24" id="heart2"><path fill="currentColor" d="m12 5.5l-.54.52a.75.75 0 0 0 1.08 0zM8.962 18.91l-.465.59zM7 16.42a.75.75 0 0 0-.954 1.16zm-4.659-3.009a.75.75 0 1 0 1.316-.72zm15.829 6.758l-.45-.6zm2.976-7.251l.543-.518zm-4.647.24l-.527.534a.75.75 0 0 0 1.054 0zm-1.67 7.011l.449-.6zm-2.977-7.251l.542.518zm7.594 7.243a.75.75 0 0 0-.893-1.205zm1.402-3.517a.75.75 0 1 0 1.32.712zm.249-3.777l-.53.53zM2.75 9.137c0-2.15 1.215-3.954 2.874-4.713c1.612-.737 3.778-.541 5.836 1.597l1.08-1.04C10.1 2.444 7.264 2.025 5 3.06C2.786 4.073 1.25 6.425 1.25 9.137zM8.497 19.5c.513.404 1.063.834 1.62 1.16s1.193.59 1.883.59v-1.5c-.31 0-.674-.12-1.126-.385c-.453-.264-.922-.628-1.448-1.043zM22.75 9.137c0-2.712-1.535-5.064-3.75-6.077c-2.264-1.035-5.098-.616-7.54 1.92l1.08 1.04c2.058-2.137 4.224-2.333 5.836-1.596c1.659.759 2.874 2.562 2.874 4.713zM9.426 18.322c-.796-.627-1.605-1.226-2.425-1.901l-.954 1.158c.83.683 1.708 1.335 2.45 1.92zm-5.768-5.63a7.25 7.25 0 0 1-.908-3.555h-1.5c0 1.638.42 3.046 1.092 4.275zm14.063 6.877a7 7 0 0 1-.758.52c-.225.125-.369.161-.463.161v1.5c.456 0 .861-.166 1.192-.35c.33-.182.65-.422.929-.63zm5.029-4.51a3.84 3.84 0 0 0-1.06-2.66l-1.085 1.037c.397.415.645.987.645 1.624zm-8.37 5.71c.278.21.599.449.928.632s.736.349 1.192.349v-1.5c-.094 0-.238-.036-.463-.16a7 7 0 0 1-.758-.521zm-2.63-5.71c0-.636.248-1.207.645-1.623L11.31 12.4a3.84 3.84 0 0 0-1.06 2.66zm.645-1.623a2.18 2.18 0 0 1 1.565-.686c.595-.003 1.304.242 2.013.942l1.054-1.067c-.953-.941-2.03-1.38-3.074-1.375a3.68 3.68 0 0 0-2.643 1.15zm6.226 7.333c.267-.2.527-.386.826-.608l-.893-1.205c-.27.199-.57.416-.833.613zm3.548-3.413a4.76 4.76 0 0 0 .581-2.297h-1.5c0 .605-.15 1.122-.4 1.585zm-6.89 2.213c-.238-.178-.496-.365-.74-.544l-.89 1.207c.26.191.498.363.73.537zm-.74-.544c-1.512-1.115-2.789-2.214-2.789-3.965h-1.5c0 2.594 1.953 4.106 3.4 5.172zm-.878-.009c-.691.49-1.218.734-1.661.734v1.5c.945 0 1.806-.498 2.528-1.01zM21.69 12.4l-.062-.063l-1.06 1.06l.037.038zm-.062-.063A3.67 3.67 0 0 0 19 11.25c-1.03.008-2.089.448-3.027 1.375l1.054 1.067c.699-.69 1.396-.937 1.985-.942a2.17 2.17 0 0 1 1.556.648zm.137.874a8.74 8.74 0 0 0 .985-4.074h-1.5c0 1.293-.31 2.403-.818 3.386z"></path></symbol>
 <symbol xmlns="http://www.w3.org/2000/svg" viewBox="0 0 24 24" id="star">
    <path fill="currentColor" d="M12 1L9 9l-8 3l8 3l3 8l3-8l8-3l-8-3l-3-8Z"></path>
  </symbol>
 
   <symbol xmlns="http://www.w3.org/2000/svg" viewBox="0 0 256 256" id="random">
    <path fill="currentColor" d="M250 138a12 12 0 0 1-24 0a94.11 94.11 0 0 0-94-94a84.09 84.09 0 0 0-84 84a74.09 74.09 0 0 0 74 74a64.07 64.07 0 0 0 64-64a54.06 54.06 0 0 0-54-54a44.05 44.05 0 0 0-44 44a34 34 0 0 0 34 34a24 24 0 0 0 24-24a14 14 0 0 0-14-14a4 4 0 0 0-2.82 1.17A12 12 0 0 1 124 148a20 20 0 0 1-20-20a28 28 0 0 1 28-28a38 38 0 0 1 38 38a48.05 48.05 0 0 1-48 48a58.07 58.07 0 0 1-58-58a68.07 68.07 0 0 1 68-68a78.09 78.09 0 0 1 78 78a88.1 88.1 0 0 1-88 88a98.11 98.11 0 0 1-98-98A108.12 108.12 0 0 1 132 20a118.13 118.13 0 0 1 118 118Z"></path>
  </symbol>
 
   <symbol xmlns="http://www.w3.org/2000/svg" viewBox="0 0 28 28" id="moon">
    <path fill="currentColor" d="M13.668 2.97a.75.75 0 0 1 .788-.93C20.627 2.536 25.48 7.7 25.48 14c0 6.628-5.372 12-12 12a11.995 11.995 0 0 1-10.378-5.972a.75.75 0 0 1 .469-1.106c1.599-.393 3.55-1.024 5.32-2.004c1.773-.983 3.31-2.287 4.168-4.003c1.714-3.427 1.261-7.345.609-9.945Z"></path>
  </symbol>
 <symbol xmlns="http://www.w3.org/2000/svg" viewBox="0 0 256 256" id="like">
    <path fill="currentColor" d="M240 98a57.63 57.63 0 0 1-17 41l-89.3 90.62a8 8 0 0 1-11.4 0L33 139a58 58 0 0 1 82-82.1l13 12.15l13.09-12.19A58 58 0 0 1 240 98Z"></path>
  </symbol>
 <symbol xmlns="http://www.w3.org/2000/svg" stroke-width="2" stroke="currentColor" fill="none" stroke-linecap="round" stroke-linejoin="round" viewBox="5 17 14 2.01" id="bar">
    <path stroke="none" d="M0 0h24v24H0z" fill="currentColor"></path>
    <path d="M6 18l0 .01"></path>
    <path d="M10 18l0 .01"></path>
    <path d="M14 18l0 .01"></path>
    <path d="M18 18l0 .01"></path>
  </symbol>
 
   <symbol xmlns="http://www.w3.org/2000/svg" viewBox="0 0 256 256" id="search">
    <path fill="currentColor" d="m229.66 218.34l-50.07-50.06a88.11 88.11 0 1 0-11.31 11.31l50.06 50.07a8 8 0 0 0 11.32-11.32ZM40 112a72 72 0 1 1 72 72a72.08 72.08 0 0 1-72-72Z"></path>
  </symbol>
  <symbol xmlns="http://www.w3.org/2000/svg" viewBox="5 5 14 14" id="delete">
    <path fill="none" stroke="currentColor" stroke-linecap="round" stroke-linejoin="round" stroke-width="2" d="M12 12L6 6m6 6l6 6m-6-6l6-6m-6 6l-6 6"></path>
  </symbol>
  <symbol xmlns="http://www.w3.org/2000/svg" viewBox="0 0 256 256" id="download">
    <path fill="currentColor" d="M220 152v56a12 12 0 0 1-12 12H48a12 12 0 0 1-12-12v-56a4 4 0 0 1 8 0v56a4 4 0 0 0 4 4h160a4 4 0 0 0 4-4v-56a4 4 0 0 1 8 0Zm-94.83 2.83a4 4 0 0 0 5.66 0l40-40a4 4 0 1 0-5.66-5.66L132 142.34V40a4 4 0 0 0-8 0v102.34l-33.17-33.17a4 4 0 0 0-5.66 5.66Z"></path>
  </symbol>
 <symbol xmlns="http://www.w3.org/2000/svg" viewBox="0 0 24 24" id="link">
    <path fill="currentColor" d="M10.73 14.97c.27.11.36.41.24.66c-.12.25-.41.37-.66.24h-.01c-.46-.21-.89-.51-1.27-.9a4.49 4.49 0 0 1 0-6.36l3.53-3.53a4.49 4.49 0 0 1 6.36 0a4.49 4.49 0 0 1 0 6.36l-1.63 1.63l-.15-1.26l1.08-1.08a3.513 3.513 0 0 0 0-4.95a3.513 3.513 0 0 0-4.95 0L9.73 9.32a3.513 3.513 0 0 0 0 4.95c.3.3.64.53 1 .7m-6.65 4.95a4.49 4.49 0 0 1 0-6.36l1.63-1.63l.15 1.26l-1.08 1.08a3.513 3.513 0 0 0 0 4.95a3.513 3.513 0 0 0 4.95 0l3.54-3.54a3.513 3.513 0 0 0 0-4.95c-.3-.3-.64-.53-1-.7v.01a.488.488 0 0 1-.24-.67c.12-.25.41-.37.66-.24h.01c.46.21.89.51 1.27.9a4.49 4.49 0 0 1 0 6.36l-3.53 3.53a4.49 4.49 0 0 1-6.36 0Z"></path>
  </symbol>
   <symbol xmlns="http://www.w3.org/2000/svg" viewBox="0 0 24 24" id="upArrow">
    <path fill="currentColor" d="m14.475 12l-7.35-7.35q-.375-.375-.363-.888t.388-.887q.375-.375.888-.375t.887.375l7.675 7.7q.3.3.45.675t.15.75q0 .375-.15.75t-.45.675l-7.7 7.7q-.375.375-.875.363T7.15 21.1q-.375-.375-.375-.888t.375-.887L14.475 12Z"></path>
  </symbol>
  <symbol viewBox="0 0 16 16" id="bar"><path fill="currentColor" fill-rule="evenodd" d="M1.25 3.25A.75.75 0 0 1 2 2.5h12A.75.75 0 0 1 14 4H2a.75.75 0 0 1-.75-.75m0 4.75A.75.75 0 0 1 2 7.25h12a.75.75 0 0 1 0 1.5H2A.75.75 0 0 1 1.25 8M2 12a.75.75 0 0 0 0 1.5h12a.75.75 0 0 0 0-1.5z" clip-rule="evenodd"></path></symbol>
  </svg>

 