<svg width="50" height="50" viewBox="0 0 50 50" fill="none" xmlns="http://www.w3.org/2000/svg">
<rect width="50" height="50" rx="8" fill="white"/>
<path d="M13 41V9C13 6.79086 11.2091 5 9 5C6.79086 5 5 6.79086 5 9V41C5 43.2091 6.79086 45 9 45C11.2091 45 13 43.2091 13 41Z" fill="#1591EA"/>
<path d="M23.6667 41V9C23.6667 6.79086 21.8758 5 19.6667 5C17.4575 5 15.6667 6.79086 15.6667 9V41C15.6667 43.2091 17.4575 45 19.6667 45C21.8758 45 23.6667 43.2091 23.6667 41Z" fill="#FF2C2C"/>
<path d="M34.3333 41V9C34.3333 6.79086 32.5425 5 30.3333 5C28.1242 5 26.3333 6.79086 26.3333 9V41C26.3333 43.2091 28.1242 45 30.3333 45C32.5425 45 34.3333 43.2091 34.3333 41Z" fill="#9D00FF"/>
<path d="M45 41V9C45 6.79086 43.2091 5 41 5C38.7909 5 37 6.79086 37 9V41C37 43.2091 38.7909 45 41 45C43.2091 45 45 43.2091 45 41Z" fill="#FF8DA1"/>
</svg>
