<svg>
 <symbol xmlns="http://www.w3.org/2000/svg" viewBox="0 0 256 256" id="tel">
    <path fill="currentColor" d="M235.57 27.7a7 7 0 0 0-7.13-1.22L25.78 105.79a12.23 12.23 0 0 0 2.1 23.39L82 139.81V200a14 14 0 0 0 24.08 9.71l26.64-27.63l41.58 36.45a13.9 13.9 0 0 0 9.2 3.49a14.33 14.33 0 0 0 4.36-.69a13.86 13.86 0 0 0 9.34-10.17l40.62-176.59a7 7 0 0 0-2.25-6.87ZM30.05 117.37a.46.46 0 0 1 0-.32a.51.51 0 0 1 .15-.08l159.71-62.52l-103.3 74l-56.41-11.04Zm67.39 84A2 2 0 0 1 94 200v-51.89l29.69 26Zm88.07 7.08a1.93 1.93 0 0 1-1.34 1.44a2 2 0 0 1-2-.4l-84.53-74.15L223 45.5Z"></path>
  </symbol>
 <symbol xmlns="http://www.w3.org/2000/svg" viewBox="0 0 24 24" id="star">
    <path fill="currentColor" d="M12 1L9 9l-8 3l8 3l3 8l3-8l8-3l-8-3l-3-8Z"></path>
  </symbol>
   <symbol xmlns="http://www.w3.org/2000/svg" viewBox="0 0 256 256" id="star2">
    <path fill="currentColor" d="M240 128a15.79 15.79 0 0 1-10.5 15l-63.44 23.07L143 229.5a16 16 0 0 1-30 0L89.93 166L26.5 143a16 16 0 0 1 0-30L90 89.93l23-63.43a16 16 0 0 1 30 0L166.07 90l63.43 23a15.79 15.79 0 0 1 10.5 15Z"></path>
  </symbol>
    <symbol xmlns="http://www.w3.org/2000/svg" viewBox="0 0 256 256" id="random2">
    <g fill="currentColor">
      <path d="M240 144h-32a80 80 0 0 1-80 80a88 88 0 0 1-88-88a96 96 0 0 1 96-96a104 104 0 0 1 104 104Z" opacity=".2"></path>
      <path d="M248 144a8 8 0 0 1-16 0a96.11 96.11 0 0 0-96-96a88.1 88.1 0 0 0-88 88a80.09 80.09 0 0 0 80 80a72.08 72.08 0 0 0 72-72a64.07 64.07 0 0 0-64-64a56.06 56.06 0 0 0-56 56a48.05 48.05 0 0 0 48 48a40 40 0 0 0 40-40a32 32 0 0 0-32-32a24 24 0 0 0-24 24a16 16 0 0 0 16 16a8 8 0 0 0 8-8a8 8 0 0 1 0-16a16 16 0 0 1 16 16a24 24 0 0 1-24 24a32 32 0 0 1-32-32a40 40 0 0 1 40-40a48.05 48.05 0 0 1 48 48a56.06 56.06 0 0 1-56 56a64.07 64.07 0 0 1-64-64a72.08 72.08 0 0 1 72-72a80.09 80.09 0 0 1 80 80a88.1 88.1 0 0 1-88 88a96.11 96.11 0 0 1-96-96A104.11 104.11 0 0 1 136 32a112.12 112.12 0 0 1 112 112Z"></path>
    </g>
  </symbol>
   <symbol xmlns="http://www.w3.org/2000/svg" viewBox="0 0 256 256" id="random">
    <path fill="currentColor" d="M250 138a12 12 0 0 1-24 0a94.11 94.11 0 0 0-94-94a84.09 84.09 0 0 0-84 84a74.09 74.09 0 0 0 74 74a64.07 64.07 0 0 0 64-64a54.06 54.06 0 0 0-54-54a44.05 44.05 0 0 0-44 44a34 34 0 0 0 34 34a24 24 0 0 0 24-24a14 14 0 0 0-14-14a4 4 0 0 0-2.82 1.17A12 12 0 0 1 124 148a20 20 0 0 1-20-20a28 28 0 0 1 28-28a38 38 0 0 1 38 38a48.05 48.05 0 0 1-48 48a58.07 58.07 0 0 1-58-58a68.07 68.07 0 0 1 68-68a78.09 78.09 0 0 1 78 78a88.1 88.1 0 0 1-88 88a98.11 98.11 0 0 1-98-98A108.12 108.12 0 0 1 132 20a118.13 118.13 0 0 1 118 118Z"></path>
  </symbol>
   <symbol xmlns="http://www.w3.org/2000/svg" viewBox="0 0 256 256" id="randomsvg">
    <path fill="currentColor" d="M250 138a12 12 0 0 1-24 0a94.11 94.11 0 0 0-94-94a84.09 84.09 0 0 0-84 84a74.09 74.09 0 0 0 74 74a64.07 64.07 0 0 0 64-64a54.06 54.06 0 0 0-54-54a44.05 44.05 0 0 0-44 44a34 34 0 0 0 34 34a24 24 0 0 0 24-24a14 14 0 0 0-14-14a4 4 0 0 0-2.82 1.17A12 12 0 0 1 124 148a20 20 0 0 1-20-20a28 28 0 0 1 28-28a38 38 0 0 1 38 38a48.05 48.05 0 0 1-48 48a58.07 58.07 0 0 1-58-58a68.07 68.07 0 0 1 68-68a78.09 78.09 0 0 1 78 78a88.1 88.1 0 0 1-88 88a98.11 98.11 0 0 1-98-98A108.12 108.12 0 0 1 132 20a118.13 118.13 0 0 1 118 118Z"></path>
  </symbol>
   <symbol xmlns="http://www.w3.org/2000/svg" viewBox="0 0 28 28" id="moon">
    <path fill="currentColor" d="M13.668 2.97a.75.75 0 0 1 .788-.93C20.627 2.536 25.48 7.7 25.48 14c0 6.628-5.372 12-12 12a11.995 11.995 0 0 1-10.378-5.972a.75.75 0 0 1 .469-1.106c1.599-.393 3.55-1.024 5.32-2.004c1.773-.983 3.31-2.287 4.168-4.003c1.714-3.427 1.261-7.345.609-9.945Z"></path>
  </symbol>
   <symbol xmlns="http://www.w3.org/2000/svg" viewBox="0 0 256 256" id="random3">
    <path fill="currentColor" d="M246 144a6 6 0 0 1-12 0a98.11 98.11 0 0 0-98-98a90.1 90.1 0 0 0-90 90a82.1 82.1 0 0 0 82 82a74.09 74.09 0 0 0 74-74a66.08 66.08 0 0 0-66-66a58.07 58.07 0 0 0-58 58a50.06 50.06 0 0 0 50 50a42 42 0 0 0 42-42a34 34 0 0 0-34-34a26 26 0 0 0-26 26a18 18 0 0 0 18 18a10 10 0 0 0 10-10a2 2 0 0 0-2-2a6 6 0 0 1 0-12a14 14 0 0 1 14 14a22 22 0 0 1-22 22a30 30 0 0 1-30-30a38 38 0 0 1 38-38a46.06 46.06 0 0 1 46 46a54.06 54.06 0 0 1-54 54a62.07 62.07 0 0 1-62-62a70.08 70.08 0 0 1 70-70a78.09 78.09 0 0 1 78 78a86.1 86.1 0 0 1-86 86a94.11 94.11 0 0 1-94-94A102.12 102.12 0 0 1 136 34a110.13 110.13 0 0 1 110 110Z"></path>
  </symbol>
  <symbol xmlns="http://www.w3.org/2000/svg" viewBox="0 0 24 24" id="heart2">
    <path fill="currentColor" d="m12 21.35l-1.45-1.32C5.4 15.36 2 12.27 2 8.5C2 5.41 4.42 3 7.5 3c1.74 0 3.41.81 4.5 2.08C13.09 3.81 14.76 3 16.5 3C19.58 3 22 5.41 22 8.5c0 3.77-3.4 6.86-8.55 11.53L12 21.35Z"></path>
  </symbol>
 <symbol xmlns="http://www.w3.org/2000/svg" viewBox="0 0 256 256" id="heart3">
    <path fill="currentColor" d="M240 98a57.63 57.63 0 0 1-17 41l-89.3 90.62a8 8 0 0 1-11.4 0L33 139a58 58 0 0 1 82-82.1l13 12.15l13.09-12.19A58 58 0 0 1 240 98Z"></path>
  </symbol>
 <symbol xmlns="http://www.w3.org/2000/svg" stroke-width="2" stroke="currentColor" fill="none" stroke-linecap="round" stroke-linejoin="round" viewBox="5 17 14 2.01" id="bar">
    <path stroke="none" d="M0 0h24v24H0z" fill="none"></path>
    <path d="M6 18l0 .01"></path>
    <path d="M10 18l0 .01"></path>
    <path d="M14 18l0 .01"></path>
    <path d="M18 18l0 .01"></path>
  </symbol>
  <symbol xmlns="http://www.w3.org/2000/svg" viewBox="0 0 256 256" id="solid-heart">
    <path fill="currentColor" d="M223 57a58.07 58.07 0 0 0-81.92-.1L128 69.05l-13.09-12.19A58 58 0 0 0 33 139l89.35 90.66a8 8 0 0 0 11.4 0L223 139a58 58 0 0 0 0-82Zm-11.35 70.76L128 212.6l-83.7-84.92a42 42 0 0 1 59.4-59.4l.2.2l18.65 17.35a8 8 0 0 0 10.9 0l18.65-17.35l.2-.2a42 42 0 1 1 59.36 59.44Z"></path>
  </symbol>
   <symbol xmlns="http://www.w3.org/2000/svg" viewBox="0 0 256 256" id="search">
    <path fill="currentColor" d="m229.66 218.34l-50.07-50.06a88.11 88.11 0 1 0-11.31 11.31l50.06 50.07a8 8 0 0 0 11.32-11.32ZM40 112a72 72 0 1 1 72 72a72.08 72.08 0 0 1-72-72Z"></path>
  </symbol>
  <symbol xmlns="http://www.w3.org/2000/svg" viewBox="5 5 14 14" id="delete">
    <path fill="none" stroke="currentColor" stroke-linecap="round" stroke-linejoin="round" stroke-width="2" d="M12 12L6 6m6 6l6 6m-6-6l6-6m-6 6l-6 6"></path>
  </symbol>
  <symbol xmlns="http://www.w3.org/2000/svg" viewBox="0 0 256 256" id="download">
    <path fill="currentColor" d="M220 152v56a12 12 0 0 1-12 12H48a12 12 0 0 1-12-12v-56a4 4 0 0 1 8 0v56a4 4 0 0 0 4 4h160a4 4 0 0 0 4-4v-56a4 4 0 0 1 8 0Zm-94.83 2.83a4 4 0 0 0 5.66 0l40-40a4 4 0 1 0-5.66-5.66L132 142.34V40a4 4 0 0 0-8 0v102.34l-33.17-33.17a4 4 0 0 0-5.66 5.66Z"></path>
  </symbol>
 <symbol xmlns="http://www.w3.org/2000/svg" viewBox="0 0 24 24" id="link">
    <path fill="currentColor" d="M10.73 14.97c.27.11.36.41.24.66c-.12.25-.41.37-.66.24h-.01c-.46-.21-.89-.51-1.27-.9a4.49 4.49 0 0 1 0-6.36l3.53-3.53a4.49 4.49 0 0 1 6.36 0a4.49 4.49 0 0 1 0 6.36l-1.63 1.63l-.15-1.26l1.08-1.08a3.513 3.513 0 0 0 0-4.95a3.513 3.513 0 0 0-4.95 0L9.73 9.32a3.513 3.513 0 0 0 0 4.95c.3.3.64.53 1 .7m-6.65 4.95a4.49 4.49 0 0 1 0-6.36l1.63-1.63l.15 1.26l-1.08 1.08a3.513 3.513 0 0 0 0 4.95a3.513 3.513 0 0 0 4.95 0l3.54-3.54a3.513 3.513 0 0 0 0-4.95c-.3-.3-.64-.53-1-.7v.01a.488.488 0 0 1-.24-.67c.12-.25.41-.37.66-.24h.01c.46.21.89.51 1.27.9a4.49 4.49 0 0 1 0 6.36l-3.53 3.53a4.49 4.49 0 0 1-6.36 0Z"></path>
  </symbol>
   <symbol xmlns="http://www.w3.org/2000/svg" viewBox="0 0 24 24" id="upArrow">
    <path fill="currentColor" d="m14.475 12l-7.35-7.35q-.375-.375-.363-.888t.388-.887q.375-.375.888-.375t.887.375l7.675 7.7q.3.3.45.675t.15.75q0 .375-.15.75t-.45.675l-7.7 7.7q-.375.375-.875.363T7.15 21.1q-.375-.375-.375-.888t.375-.887L14.475 12Z"></path>
  </symbol>
</svg>

 