<svg>
<symbol  xmlns="http://www.w3.org/2000/svg" viewBox="0 0 56 56" id="star" fill="none">
<path fill="currentColor" d="M21.871 15.566c.281 0 .422-.164.469-.421c.797-3.75.75-3.891 4.664-4.688c.281-.047.445-.21.445-.469c0-.281-.164-.445-.445-.492c-3.914-.797-3.867-.937-4.664-4.664c-.047-.258-.188-.445-.469-.445s-.422.187-.492.445c-.774 3.727-.727 3.867-4.664 4.664c-.258.047-.445.211-.445.492c0 .258.187.422.445.469c3.937.797 3.89.938 4.664 4.688c.07.257.21.421.492.421m19.36 8.274c.328 0 .515-.211.562-.516c.82-4.453.844-4.734 5.554-5.555c.305-.046.54-.257.54-.585c0-.329-.235-.516-.54-.586c-4.71-.797-4.734-1.078-5.554-5.532c-.047-.304-.234-.539-.562-.539s-.54.235-.586.54c-.797 4.453-.82 4.734-5.532 5.53c-.328.071-.539.258-.539.587s.211.539.54.585c4.71.82 4.734 1.102 5.53 5.555c.047.305.258.516.587.516M9.027 30.566c.329 0 .516-.234.563-.539c.82-4.453.844-4.734 5.555-5.53c.304-.071.539-.259.539-.587s-.235-.539-.54-.586c-4.71-.82-4.734-1.101-5.554-5.555c-.047-.304-.235-.515-.563-.515s-.539.21-.585.515c-.82 4.454-.82 4.735-5.532 5.555c-.328.047-.539.258-.539.586s.211.516.54.586c4.71.797 4.71 1.078 5.53 5.531c.047.305.258.54.586.54m40.032 20.04c.984 1.007 2.671 1.007 3.609 0c.938-1.055.96-2.626 0-3.61l-22.289-22.36c-.984-.984-2.672-.984-3.61 0c-.96 1.055-.96 2.65 0 3.634Zm-28.899.374c.422 0 .727-.304.774-.75c.773-6.257 1.078-6.421 7.43-7.453c.515-.093.82-.328.82-.797c0-.445-.305-.726-.727-.796c-6.398-1.22-6.75-1.196-7.523-7.453c-.047-.446-.352-.75-.774-.75c-.445 0-.75.304-.797.726c-.82 6.352-1.054 6.563-7.523 7.477c-.422.047-.727.351-.727.797c0 .445.305.703.727.796c6.469 1.242 6.68 1.242 7.523 7.5a.774.774 0 0 0 .797.703m29.743-1.992L35.442 34.504l1.148-1.125l14.46 14.484c.423.399.516.867.141 1.29c-.422.35-.867.28-1.288-.165">
</path>
</symbol>
<symbol xmlns="http://www.w3.org/2000/svg" viewBox="0 0 24 24" id="moon"><g fill="none"><path stroke="currentColor" d="M19.9 2.307a.483.483 0 0 0-.9 0l-.43 1.095a.48.48 0 0 1-.272.274l-1.091.432a.486.486 0 0 0 0 .903l1.091.432a.48.48 0 0 1 .272.273L19 6.81c.162.41.74.41.9 0l.43-1.095a.48.48 0 0 1 .273-.273l1.091-.432a.486.486 0 0 0 0-.903l-1.091-.432a.48.48 0 0 1-.273-.274zM16.033 8.13a.483.483 0 0 0-.9 0l-.157.399a.48.48 0 0 1-.272.273l-.398.158a.486.486 0 0 0 0 .903l.398.157c.125.05.223.148.272.274l.157.399c.161.41.739.41.9 0l.157-.4a.48.48 0 0 1 .272-.273l.398-.157a.486.486 0 0 0 0-.903l-.398-.158a.48.48 0 0 1-.272-.273z"></path><path fill="currentColor" d="m21.067 11.857l-.642-.388zm-8.924-8.924l-.388-.642zM21.25 12A9.25 9.25 0 0 1 12 21.25v1.5c5.937 0 10.75-4.813 10.75-10.75zM12 21.25A9.25 9.25 0 0 1 2.75 12h-1.5c0 5.937 4.813 10.75 10.75 10.75zM2.75 12A9.25 9.25 0 0 1 12 2.75v-1.5C6.063 1.25 1.25 6.063 1.25 12zm12.75 2.25A5.75 5.75 0 0 1 9.75 8.5h-1.5a7.25 7.25 0 0 0 7.25 7.25zm4.925-2.781A5.75 5.75 0 0 1 15.5 14.25v1.5a7.25 7.25 0 0 0 6.21-3.505zM9.75 8.5a5.75 5.75 0 0 1 2.781-4.925l-.776-1.284A7.25 7.25 0 0 0 8.25 8.5zM12 2.75a.38.38 0 0 1-.268-.118a.3.3 0 0 1-.082-.155c-.004-.031-.002-.121.105-.186l.776 1.284c.503-.304.665-.861.606-1.299c-.062-.455-.42-1.026-1.137-1.026zm9.71 9.495c-.066.107-.156.109-.187.105a.3.3 0 0 1-.155-.082a.38.38 0 0 1-.118-.268h1.5c0-.717-.571-1.075-1.026-1.137c-.438-.059-.995.103-1.299.606z"></path></g></symbol>
<symbol xmlns="http://www.w3.org/2000/svg" viewBox="0 0 24 24" id="downArrow">
    <path fill="currentColor" d="M12 14.975q-.2 0-.388-.075t-.312-.2l-4.6-4.6q-.275-.275-.275-.7t.275-.7q.275-.275.7-.275t.7.275l3.9 3.9l3.9-3.9q.275-.275.7-.275t.7.275q.275.275.275.7t-.275.7l-4.6 4.6q-.15.15-.325.213t-.375.062Z"></path>
  </symbol>
  <symbol xmlns="http://www.w3.org/2000/svg"  viewBox="0 0 24 24" id="heart"><path fill="currentColor" d="m12 5.5l-.54.52a.75.75 0 0 0 1.08 0zM8.962 18.91l-.465.59zM7 16.42a.75.75 0 0 0-.954 1.16zm-4.659-3.009a.75.75 0 1 0 1.316-.72zm15.829 6.758l-.45-.6zm2.976-7.251l.543-.518zm-4.647.24l-.527.534a.75.75 0 0 0 1.054 0zm-1.67 7.011l.449-.6zm-2.977-7.251l.542.518zm7.594 7.243a.75.75 0 0 0-.893-1.205zm1.402-3.517a.75.75 0 1 0 1.32.712zm.249-3.777l-.53.53zM2.75 9.137c0-2.15 1.215-3.954 2.874-4.713c1.612-.737 3.778-.541 5.836 1.597l1.08-1.04C10.1 2.444 7.264 2.025 5 3.06C2.786 4.073 1.25 6.425 1.25 9.137zM8.497 19.5c.513.404 1.063.834 1.62 1.16s1.193.59 1.883.59v-1.5c-.31 0-.674-.12-1.126-.385c-.453-.264-.922-.628-1.448-1.043zM22.75 9.137c0-2.712-1.535-5.064-3.75-6.077c-2.264-1.035-5.098-.616-7.54 1.92l1.08 1.04c2.058-2.137 4.224-2.333 5.836-1.596c1.659.759 2.874 2.562 2.874 4.713zM9.426 18.322c-.796-.627-1.605-1.226-2.425-1.901l-.954 1.158c.83.683 1.708 1.335 2.45 1.92zm-5.768-5.63a7.25 7.25 0 0 1-.908-3.555h-1.5c0 1.638.42 3.046 1.092 4.275zm14.063 6.877a7 7 0 0 1-.758.52c-.225.125-.369.161-.463.161v1.5c.456 0 .861-.166 1.192-.35c.33-.182.65-.422.929-.63zm5.029-4.51a3.84 3.84 0 0 0-1.06-2.66l-1.085 1.037c.397.415.645.987.645 1.624zm-8.37 5.71c.278.21.599.449.928.632s.736.349 1.192.349v-1.5c-.094 0-.238-.036-.463-.16a7 7 0 0 1-.758-.521zm-2.63-5.71c0-.636.248-1.207.645-1.623L11.31 12.4a3.84 3.84 0 0 0-1.06 2.66zm.645-1.623a2.18 2.18 0 0 1 1.565-.686c.595-.003 1.304.242 2.013.942l1.054-1.067c-.953-.941-2.03-1.38-3.074-1.375a3.68 3.68 0 0 0-2.643 1.15zm6.226 7.333c.267-.2.527-.386.826-.608l-.893-1.205c-.27.199-.57.416-.833.613zm3.548-3.413a4.76 4.76 0 0 0 .581-2.297h-1.5c0 .605-.15 1.122-.4 1.585zm-6.89 2.213c-.238-.178-.496-.365-.74-.544l-.89 1.207c.26.191.498.363.73.537zm-.74-.544c-1.512-1.115-2.789-2.214-2.789-3.965h-1.5c0 2.594 1.953 4.106 3.4 5.172zm-.878-.009c-.691.49-1.218.734-1.661.734v1.5c.945 0 1.806-.498 2.528-1.01zM21.69 12.4l-.062-.063l-1.06 1.06l.037.038zm-.062-.063A3.67 3.67 0 0 0 19 11.25c-1.03.008-2.089.448-3.027 1.375l1.054 1.067c.699-.69 1.396-.937 1.985-.942a2.17 2.17 0 0 1 1.556.648zm.137.874a8.74 8.74 0 0 0 .985-4.074h-1.5c0 1.293-.31 2.403-.818 3.386z"></path></symbol>
 <symbol xmlns="http://www.w3.org/2000/svg" viewBox="0 0 24 24" id="star">
    <path fill="currentColor" d="M12 1L9 9l-8 3l8 3l3 8l3-8l8-3l-8-3l-3-8Z"></path>
  </symbol>
</svg>

 